<?xml version="1.0" encoding="UTF-8" standalone="no"?>
<!-- Created with Inkscape (http://www.inkscape.org/) -->

<svg
   width="176.51823mm"
   height="246.64578mm"
   viewBox="0 0 176.51823 246.64579"
   version="1.1"
   id="svg1"
   inkscape:version="1.4.2 (f4327f4, 2025-05-13)"
   sodipodi:docname="drop.svg"
   xmlns:inkscape="http://www.inkscape.org/namespaces/inkscape"
   xmlns:sodipodi="http://sodipodi.sourceforge.net/DTD/sodipodi-0.dtd"
   xmlns="http://www.w3.org/2000/svg"
   xmlns:svg="http://www.w3.org/2000/svg">
  <sodipodi:namedview
     id="namedview1"
     pagecolor="#ffffff"
     bordercolor="#000000"
     borderopacity="0.25"
     inkscape:showpageshadow="2"
     inkscape:pageopacity="0.0"
     inkscape:pagecheckerboard="0"
     inkscape:deskcolor="#d1d1d1"
     inkscape:document-units="mm"
     inkscape:zoom="0.53606888"
     inkscape:cx="346.03762"
     inkscape:cy="512.06106"
     inkscape:window-width="1920"
     inkscape:window-height="1111"
     inkscape:window-x="2391"
     inkscape:window-y="-9"
     inkscape:window-maximized="1"
     inkscape:current-layer="layer1" />
  <defs
     id="defs1" />
  <g
     inkscape:label="Layer 1"
     inkscape:groupmode="layer"
     id="layer1"
     transform="translate(-17.604536,-5.2190469)">
    <path
       style="fill:#ececec;stroke-width:5.3932"
       d="m 127.54782,7.21229 c 24.56691,5.957016 46.39364,23.663615 57.99076,47.044059 7.07809,14.269994 9.17777,24.904804 8.447,42.784191 -0.54526,13.34004 -1.32512,17.44335 -5.1948,27.3326 -5.59922,14.30931 -15.57476,30.35506 -35.76514,57.52839 -19.78465,26.62733 -32.59615,45.54254 -40.07043,59.16103 -3.26074,5.94126 -6.50344,10.80227 -7.20607,10.80227 -0.70257,0 -3.14424,-3.69225 -5.42589,-8.20496 C 94.37848,231.90198 78.181721,207.71422 57.96076,180.39683 25.978628,137.19069 18.787168,122.41449 17.739325,97.754007 16.995545,80.249446 19.271964,68.360014 26.015356,54.529747 37.507088,30.960845 59.682327,13.070832 84.722011,7.1676425 95.818691,4.551564 116.6645,4.573298 127.54782,7.210747 Z"
       id="path1" />
  </g>
</svg>
